<?xml version="1.0"?>
<svg width="756" height="383" xmlns="http://www.w3.org/2000/svg" xmlns:svg="http://www.w3.org/2000/svg" version="1.1">
 <g class="layer">
  <title>Layer 1</title>
  <g id="#ffffffff"/>
  <path d="m3.01,2.25c26,0.01 52,0 78,0.01c13.35,0.11 26.82,4.9 36.59,14.12c8.11,7.52 13.27,18.41 12.92,29.57c0.32,10.12 -2.86,20.46 -9.4,28.27c-5.21,6.41 -12.51,10.8 -20.23,13.52c8.07,2.3 15.84,6.76 20.61,13.84c3.76,5.32 5.18,11.91 5.24,18.34c0.01,11.86 0.02,23.72 -0.01,35.58c-10.99,-0.02 -21.98,0 -32.97,-0.01c-0.02,-9.52 0.02,-19.04 -0.01,-28.56c-0.23,-6.8 -1.78,-14.05 -6.7,-19.05c-5.21,-5.21 -12.88,-6.78 -19.98,-7.1c-7.44,-0.09 -14.87,-0.01 -22.31,-0.03c0.03,-8.85 -0.08,-17.69 0.06,-26.54c10.72,0.1 21.44,0.01 32.16,0.05c7.49,-0.01 14.72,-4.64 17.9,-11.43c4.35,-8.94 3.04,-21.21 -4.85,-27.81c-4.47,-3.66 -10.38,-5.06 -16.06,-5.03c-13.25,0.03 -26.49,-0.01 -39.73,0.02c0.01,32.66 0,65.32 0,97.99c-10.41,0 -20.83,0 -31.24,0c0,-41.92 -0.01,-83.83 0.01,-125.75z" fill="#0e253e" id="svg_1" opacity="1"/>
  <path d="m398.01,2.25c10.74,0.01 21.48,0.01 32.23,0c0,33 0.01,66 0,99c8.25,0.01 16.5,0 24.76,0.01c10.55,0.15 20.05,-8.87 21.06,-19.26c1.74,-10.95 -5.79,-22.9 -16.95,-24.86c-5.91,-0.84 -11.91,-0.2 -17.85,-0.39c-0.01,-8.92 0,-17.83 -0.01,-26.74c6.92,-0.03 13.84,0.01 20.76,-0.02c14.51,-0.3 28.69,7.29 37.19,18.94c8.54,11.56 11.39,26.85 8.6,40.85c-3.94,17.49 -18.93,30.79 -35.7,35.87c-8.43,2.75 -17.4,2.64 -26.16,2.59c-15.98,0 -31.96,0 -47.94,0c0,-42 -0.01,-83.99 0.01,-125.99z" fill="#0e253e" id="svg_2" opacity="1"/>
  <path d="m651.25,2.26c10.83,-0.01 21.66,-0.01 32.5,0c0,19.99 -0.01,39.99 0,59.99c6.78,-0.24 13.66,0.6 20.38,-0.64c6.3,-1.3 11.4,-6.15 13.58,-12.12c2.6,-6.25 2.41,-13.15 2.63,-19.78c10.64,0.11 21.28,0.01 31.93,0.05c-0.27,10.36 -0.18,21.42 -5.59,30.65c-4.63,8.06 -13.37,12.52 -21.91,15.27c10.11,2.84 19.95,8.94 24.47,18.77c5.26,10.42 3.45,22.33 3.76,33.55c-10.75,0 -21.5,0 -32.24,0c-0.62,-9.29 1.91,-19.45 -3.09,-27.91c-3.86,-6.99 -11.93,-10.51 -19.62,-11.01c-4.76,-0.2 -9.54,-0.02 -14.3,-0.08c-0.01,13 -0.01,26 0,38.99c-10.84,0.01 -21.67,0.01 -32.5,0c0.01,-41.91 0,-83.82 0,-125.73z" fill="#0e253e" id="svg_3" opacity="1"/>
  <path d="m564.57,29.67c15.93,-2.8 33.1,-1.4 47.54,6.29c11.02,5.86 19.64,16.1 23.18,28.1c4.36,14.83 2.59,31.84 -6.43,44.63c-7.6,10.99 -19.86,18.11 -32.75,21c-15.03,3.33 -31.27,2.28 -45.3,-4.31c-13.46,-6.25 -24.44,-18.29 -28.11,-32.82c-3.77,-14.97 -0.94,-31.87 8.77,-44.07c8.13,-10.21 20.39,-16.51 33.1,-18.82m7.94,24.93c-11.6,2.9 -20.22,14.57 -19.39,26.53c0.47,8.52 5.37,16.7 12.75,21.02c7.32,4.57 16.91,4.99 24.65,1.19c11.91,-5.5 18.14,-20.61 13.14,-32.83c-4.38,-12.21 -18.68,-19.58 -31.15,-15.91z" fill="#0e253e" id="svg_4" opacity="1"/>
  <path d="m148.94,52.84c8.46,-13.62 23.93,-22.55 39.99,-22.81c20.86,-0.07 41.71,-0.01 62.56,-0.03c-0.15,9.57 0.31,19.21 -0.22,28.72c-6.79,10.8 -13.74,21.51 -20.58,32.28c-10.36,-0.03 -20.71,0.05 -31.06,-0.04c6.85,-11.39 13.73,-22.77 20.49,-34.21c-8.36,-0.02 -16.72,0.02 -25.09,-0.02c-7.56,-0.25 -14.89,4.13 -18.79,10.52c-4.68,7.42 -4.4,17.65 0.8,24.75c4.19,6.1 11.56,9.64 18.91,9.51c18.51,0 37.03,-0.01 55.54,0c0,8.91 0.01,17.82 0,26.73c-17.83,0.01 -35.66,0 -53.49,0.01c-7.32,0.01 -14.81,0.08 -21.87,-2.14c-13.97,-4.08 -25.71,-14.9 -31.09,-28.4c-5.92,-14.44 -4.5,-31.68 3.9,-44.87z" fill="#0e253e" id="svg_5" opacity="1"/>
  <path d="m286.5,39.49c8.16,-6.14 18.32,-9.38 28.5,-9.49c20.5,-0.01 41,0 61.49,0c0.02,9.56 -0.03,19.12 0.03,28.68c-6.89,10.77 -13.76,21.56 -20.67,32.32c-10.34,-0.01 -20.67,0 -31.01,0c6.75,-11.46 13.68,-22.81 20.48,-34.25c-9.13,0.02 -18.26,-0.07 -27.39,0.03c-12.13,0.98 -21.68,13.39 -19.66,25.37c1.33,10.37 10.67,19.02 21.17,19.3c19.1,0.13 38.2,0.03 57.29,0.05c0.03,8.91 0,17.82 0.02,26.74c-20.54,-0.05 -41.08,0.12 -61.62,-0.08c-12.64,-0.01 -25.24,-5.14 -34.08,-14.21c-10.52,-10.21 -15.79,-25.41 -14.19,-39.94c1.29,-13.59 8.61,-26.48 19.64,-34.52z" fill="#0e253e" id="svg_6" opacity="1"/>
  <path d="m541.96,195.02c70.3,-7.77 140.84,-13.31 211.41,-17.84c-38.16,9.72 -76.45,19.08 -114.25,30.21c-53.08,15.15 -104.84,34.47 -155.96,55.17c-26.75,-15.79 -53.6,-31.4 -80.33,-47.22c46.01,-9.02 92.56,-15.01 139.13,-20.32z" fill="#0e253e" id="svg_7" opacity="1" transform="matrix(1 0 0 1 0 0)"/>
  <path d="m33.6,181.49c87.97,0.11 175.95,-0.13 263.9,0.12c19.22,9.67 37.75,20.7 56.5,31.25c72.64,41.73 144.89,84.15 216.78,127.15c17.28,10.36 34.57,20.69 51.67,31.35c3.75,2.46 7.71,4.63 11.19,7.48c-77.68,-32.64 -154.67,-67.01 -233.43,-96.99c-67.15,-25.7 -135.71,-47.72 -205.4,-65.4c-38.47,-9.87 -77.26,-18.45 -116.21,-26.21c-14.96,-3.09 -30.09,-5.47 -45,-8.75z" fill="#c32240" id="svg_8" opacity="1"/>
  <path d="m130.11,310.12c36.54,-23.96 76.89,-41.51 117.95,-56.1c24.47,6.6 48.52,14.75 72.63,22.56c-32.06,12.71 -62.87,28.87 -90.62,49.43c-17.74,13.34 -34.83,27.99 -48.33,45.72c-39.82,0.02 -79.64,0.04 -119.45,-0.01c18.91,-24.19 42.2,-44.76 67.82,-61.6z" fill="#0e253e" id="svg_9" opacity="1"/>
  <path d="m251.69,344.79c27.51,-25.01 59.55,-44.74 93.44,-59.85c19.14,6.69 38.14,13.8 57.06,21.1c-16.37,11.65 -32.67,23.68 -46.28,38.57c-7.84,8.4 -14.77,17.6 -21.18,27.12c-36.02,0.04 -72.04,-0.01 -108.06,0.03c7.26,-9.93 16.03,-18.63 25.02,-26.97z" fill="#0e253e" id="svg_10" opacity="1"/>
 </g>
</svg>